<svg width="580" height="400" xmlns="http://www.w3.org/2000/svg">
 <!-- Created with Method Draw - http://github.com/duopixel/Method-Draw/ -->
 <g>
  <title>background</title>
  <rect fill="#fff" id="canvas_background" height="402" width="582" y="-1" x="-1"/>
  <g display="none" overflow="visible" y="0" x="0" height="100%" width="100%" id="canvasGrid">
   <rect fill="url(#gridpattern)" stroke-width="0" y="0" x="0" height="100%" width="100%"/>
  </g>
 </g>
 <g>
  <title>Layer 1</title>
  <line stroke-linecap="undefined" stroke-linejoin="undefined" id="svg_9" y2="211.969684" x2="200.454542" y1="148.333323" x1="200.454542" fill-opacity="null" stroke-opacity="null" stroke-width="1.5" stroke="#000" fill="none"/>
  <line stroke-linecap="undefined" stroke-linejoin="undefined" id="svg_10" y2="212.376011" x2="325.783964" y1="150" x1="326" fill-opacity="null" stroke-opacity="null" stroke-width="1.5" stroke="#000" fill="none"/>
  <line stroke-linecap="undefined" stroke-linejoin="undefined" id="svg_11" y2="212.221921" x2="325.381437" y1="211.380025" x1="200.700248" fill-opacity="null" stroke-opacity="null" stroke-width="1.5" stroke="#000" fill="none"/>
  <rect id="svg_12" height="100" width="25" y="100" x="50" stroke-opacity="null" stroke-width="1.5" stroke="#000" fill="#422C10"/>
  <ellipse ry="60" rx="60" id="svg_13" cy="64" cx="63.858725" stroke-opacity="null" stroke-width="1.5" stroke="#000" fill="#729C62"/>
  <ellipse ry="30" rx="30" id="svg_15" cy="300" cx="79.438202" stroke-opacity="null" stroke-width="1.5" stroke="#000" fill="#482816"/>
  <ellipse ry="30" rx="30" id="svg_16" cy="300" cx="180" stroke-opacity="null" stroke-width="1.5" stroke="#000" fill="#482816"/>
  <ellipse rx="25.142858" id="svg_17" cy="328.85714" cx="113.99999" fill-opacity="null" stroke-opacity="null" stroke-width="1.5" stroke="#000" fill="none"/>
  <rect id="svg_18" height="42.285716" width="84.571432" y="223.714278" x="40.85713" fill-opacity="null" stroke-opacity="null" stroke-width="1.5" stroke="#000" fill="none"/>
  <rect id="svg_19" height="42.285716" width="84.571432" y="225" x="40" stroke-opacity="null" stroke-width="1.5" stroke="#000" fill="#84D3DB"/>
  <rect id="svg_20" height="39.428575" width="175.428491" y="260" x="40" stroke-opacity="null" stroke-width="1.5" stroke="#000" fill="#CC7C65"/>
  <rect id="svg_21" height="30.637906" width="50" y="180" x="239.720675" stroke-opacity="null" stroke-width="1.5" stroke="#000" fill="#332D40"/>
  <line stroke-linecap="null" stroke-linejoin="null" id="svg_23" y2="210.716492" x2="264.931258" y1="180.224692" x1="264.931258" fill-opacity="null" stroke-opacity="null" stroke-width="1.5" stroke="#000" fill="none"/>
  <line stroke-linecap="null" stroke-linejoin="null" id="svg_24" y2="218.571252" x2="581.997123" y1="215.714138" x1="0" fill-opacity="null" stroke-opacity="null" stroke-width="1.5" stroke="#000" fill="none"/>
  <line stroke-linecap="null" stroke-linejoin="null" id="svg_25" y2="367.141215" x2="587.13993" y1="363.712678" x1="-2.568539" stroke-opacity="null" stroke-width="1.5" stroke="#000" fill="none"/>
  <rect id="svg_27" height="14" width="16" y="160" x="210" stroke-opacity="null" stroke-width="1.5" stroke="#000" fill="#FFFA8D"/>
  <rect id="svg_28" height="15.713714" width="14.285195" y="159.720675" x="300.279325" stroke-opacity="null" stroke-width="1.5" stroke="#000" fill="#FFFA8D"/>
  <rect id="svg_29" height="0" width="0.35713" y="172.850836" x="328.212894" stroke-opacity="null" stroke-width="1.5" stroke="#000" fill="#1F361B"/>
  <rect id="svg_30" height="56.111776" width="25.555858" y="25" x="300" stroke-opacity="null" stroke-width="1.5" stroke="#000" fill="#1F361B"/>
  <rect id="svg_31" height="0.555562" width="0" y="69.165118" x="375.000973" stroke-opacity="null" stroke-width="1.5" stroke="#000" fill="#1F361B"/>
  <path id="svg_33" d="m150.106506,149.631439l48.650177,-68.881439l127.294373,0l38.184967,68.881439l-214.486023,0z" stroke-opacity="null" stroke-width="1.5" stroke="#000" fill="#894F3F"/>
  <ellipse ry="50" rx="100" id="svg_36" cy="30" cx="500" stroke-opacity="null" stroke-width="1.5" stroke="#000" fill="#FFFA8D"/>
  <path id="svg_39" d="m-145.779266,16.308191l0.279373,-1.49l0.931244,0l0.279373,1.49l-1.48999,0z" stroke-opacity="null" stroke-width="1.5" stroke="#000" fill="#482816"/>
  <path id="svg_41" d="m-83.172539,122.516052l0.279381,-1.490005l0.931244,0l0.279381,1.490005l-1.490005,0z" stroke-opacity="null" stroke-width="1.5" stroke="#000" fill="#482816"/>
 </g>
</svg>