ply
format ascii 1.0
element vertex 100
property float32 x
property float32 y
property float32 z
element face 98
property list uint8 int32 vertex_index
end_header
-1.0 -0.0 0.0
-0.78 -0.0 0.0
-0.56 -0.0 0.0
-0.33 -0.0 0.0
-0.11 -0.0 0.0
0.11 0.0 0.0
0.33 0.0 0.0
0.56 0.0 0.0
0.78 0.0 0.0
1.0 0.0 0.0
-0.77 -0.64 0.7
-0.6 -0.5 0.7
-0.43 -0.36 0.7
-0.26 -0.21 0.7
-0.09 -0.07 0.7
0.09 0.07 0.7
0.26 0.21 0.7
0.43 0.36 0.7
0.6 0.5 0.7
0.77 0.64 0.7
-0.17 -0.98 1.4
-0.14 -0.77 1.4
-0.1 -0.55 1.4
-0.06 -0.33 1.4
-0.02 -0.11 1.4
0.02 0.11 1.4
0.06 0.33 1.4
0.1 0.55 1.4
0.14 0.77 1.4
0.17 0.98 1.4
0.5 -0.87 2.09
0.39 -0.67 2.09
0.28 -0.48 2.09
0.17 -0.29 2.09
0.06 -0.1 2.09
-0.06 0.1 2.09
-0.17 0.29 2.09
-0.28 0.48 2.09
-0.39 0.67 2.09
-0.5 0.87 2.09
0.94 -0.34 2.79
0.73 -0.27 2.79
0.52 -0.19 2.79
0.31 -0.11 2.79
0.1 -0.04 2.79
-0.1 0.04 2.79
-0.31 0.11 2.79
-0.52 0.19 2.79
-0.73 0.27 2.79
-0.94 0.34 2.79
0.94 0.34 3.49
0.73 0.27 3.49
0.52 0.19 3.49
0.31 0.11 3.49
0.1 0.04 3.49
-0.1 -0.04 3.49
-0.31 -0.11 3.49
-0.52 -0.19 3.49
-0.73 -0.27 3.49
-0.94 -0.34 3.49
0.5 0.87 4.19
0.39 0.67 4.19
0.28 0.48 4.19
0.17 0.29 4.19
0.06 0.1 4.19
-0.06 -0.1 4.19
-0.17 -0.29 4.19
-0.28 -0.48 4.19
-0.39 -0.67 4.19
-0.5 -0.87 4.19
-0.17 0.98 4.89
-0.14 0.77 4.89
-0.1 0.55 4.89
-0.06 0.33 4.89
-0.02 0.11 4.89
0.02 -0.11 4.89
0.06 -0.33 4.89
0.1 -0.55 4.89
0.14 -0.77 4.89
0.17 -0.98 4.89
-0.77 0.64 5.59
-0.6 0.5 5.59
-0.43 0.36 5.59
-0.26 0.21 5.59
-0.09 0.07 5.59
0.09 -0.07 5.59
0.26 -0.21 5.59
0.43 -0.36 5.59
0.6 -0.5 5.59
0.77 -0.64 5.59
-1.0 0.0 6.28
-0.78 0.0 6.28
-0.56 0.0 6.28
-0.33 0.0 6.28
-0.11 0.0 6.28
0.11 -0.0 6.28
0.33 -0.0 6.28
0.56 -0.0 6.28
0.78 -0.0 6.28
1.0 -0.0 6.28
3 0 1 2
3 1 2 3
3 2 3 4
3 3 4 5
3 4 5 6
3 5 6 7
3 6 7 8
3 7 8 9
3 8 9 10
3 9 10 11
3 10 11 12
3 11 12 13
3 12 13 14
3 13 14 15
3 14 15 16
3 15 16 17
3 16 17 18
3 17 18 19
3 18 19 20
3 19 20 21
3 20 21 22
3 21 22 23
3 22 23 24
3 23 24 25
3 24 25 26
3 25 26 27
3 26 27 28
3 27 28 29
3 28 29 30
3 29 30 31
3 30 31 32
3 31 32 33
3 32 33 34
3 33 34 35
3 34 35 36
3 35 36 37
3 36 37 38
3 37 38 39
3 38 39 40
3 39 40 41
3 40 41 42
3 41 42 43
3 42 43 44
3 43 44 45
3 44 45 46
3 45 46 47
3 46 47 48
3 47 48 49
3 48 49 50
3 49 50 51
3 50 51 52
3 51 52 53
3 52 53 54
3 53 54 55
3 54 55 56
3 55 56 57
3 56 57 58
3 57 58 59
3 58 59 60
3 59 60 61
3 60 61 62
3 61 62 63
3 62 63 64
3 63 64 65
3 64 65 66
3 65 66 67
3 66 67 68
3 67 68 69
3 68 69 70
3 69 70 71
3 70 71 72
3 71 72 73
3 72 73 74
3 73 74 75
3 74 75 76
3 75 76 77
3 76 77 78
3 77 78 79
3 78 79 80
3 79 80 81
3 80 81 82
3 81 82 83
3 82 83 84
3 83 84 85
3 84 85 86
3 85 86 87
3 86 87 88
3 87 88 89
3 88 89 90
3 89 90 91
3 90 91 92
3 91 92 93
3 92 93 94
3 93 94 95
3 94 95 96
3 95 96 97
3 96 97 98
3 97 98 99
